<?xml version="1.0" encoding="utf-8"?>
<!-- Generator: Adobe Illustrator 16.0.0, SVG Export Plug-In . SVG Version: 6.00 Build 0)  -->
<!DOCTYPE svg PUBLIC "-//W3C//DTD SVG 1.1//EN" "http://www.w3.org/Graphics/SVG/1.1/DTD/svg11.dtd">
<svg version="1.1" id="Layer_1" xmlns="http://www.w3.org/2000/svg" xmlns:xlink="http://www.w3.org/1999/xlink" x="0px" y="0px"
	 width="1000px" height="1000px" viewBox="0 0 1000 1000" enable-background="new 0 0 1000 1000" xml:space="preserve">
<rect x="1293" y="1877" width="1060" height="1060"/>
<text transform="matrix(1 0 0 1 -1558.9834 -328)" fill="#333333" font-family="'MyriadPro-Regular'" font-size="568">ET</text>
<g>
	<path fill="#333333" d="M2410.847,910.961h-195.384v126.053h218.23v98.479h-338.768l-0.002-531l327.738,0.002l-0.001,98.479
		h-207.198V813.27h195.382L2410.847,910.961z"/>
</g>
<g>
	<path d="M-464.729,491.535h-140.862v90.879h157.334v70.999h-244.237V270.586h236.285v70.999h-149.382v79.52h140.862V491.535z"/>
</g>
<g>
	<path fill="#333333" d="M1559.708,174.309h-142.56V73.49h408.065v100.819h-144.912l0.001,430.184l-120.594-0.002L1559.708,174.309z
		"/>
</g>
<text transform="matrix(1 0 0 1 39.5898 1175.918)" fill="#1A1A1A" font-family="'ErasITC-Medium'" font-size="144">EARL TILLUCK</text>
<text transform="matrix(1 0 0 1 167.8188 1303.3242)" fill="#1A1A1A" font-family="'ErasITC-Light'" font-size="94">WEB DEVELOPER</text>
<text transform="matrix(1 0 0 1 -1969.8691 1258.0166)" font-family="'MyriadPro-Bold'" font-size="200">Earl Tilluck</text>
<text transform="matrix(1 0 0 1 -1152.9766 1920.9531)" fill="#ED1E79" font-family="'MyriadPro-Bold'" font-size="860">E</text>
<text transform="matrix(1 0 0 1 -901.0928 2073.0566)" fill="#FFFF00" font-family="'MyriadPro-Bold'" font-size="860">E</text>
<text transform="matrix(1 0 0 1 -703.001 2276.4922)" fill="#39B54A" font-family="'MyriadPro-Bold'" font-size="860">E</text>
<text transform="matrix(1 0 0 1 2274.0684 1271.4922)" fill="#FFFFFF" font-family="'MyriadPro-Bold'" font-size="800">T</text>
<text transform="matrix(1 0 0 1 2902.8311 737)" font-family="'MyriadPro-Bold'" font-size="900">E</text>
<text transform="matrix(1 0 0 1 -732.541 201)" font-family="'MyriadPro-Bold'" font-size="800">T</text>
<g>
	<g>
		<path d="M-1055.868-38.944c-49.101-8.539-98.201-17.077-147.301-25.616c-10.053-1.748-20.106-3.497-30.16-5.245
			c-6.203-1.667-12.406-1.667-18.608,0c-8.633,2.375-16.492,8.249-20.917,16.085c-23.033,40.783-46.066,81.567-69.1,122.351
			c-6.745,11.943-7.129,24.643-0.787,36.992c0.463,0.901,0.923,1.804,1.382,2.707c2.484,4.883,4.938,9.781,7.378,14.686
			c9.455,19.006,18.657,38.139,27.623,57.38c10.071,21.614,19.821,43.38,29.095,65.349c-1.176-2.787-2.352-5.574-3.528-8.361
			c9.415,22.335,18.379,44.883,26.2,67.831c6.308,18.507,12.248,37.511,14.92,56.938c-0.417-3.102-0.833-6.203-1.25-9.304
			c0.848,6.358,1.369,12.862,0.551,19.251c0.417-3.101,0.833-6.203,1.25-9.304c-0.328,2.374-0.853,4.709-1.771,6.928
			c1.176-2.787,2.352-5.574,3.528-8.361c-0.539,1.244-1.192,2.414-2.02,3.489c1.824-2.361,3.648-4.722,5.473-7.083
			c-0.619,0.77-1.305,1.457-2.084,2.064c2.361-1.824,4.723-3.648,7.084-5.473c-0.717,0.531-1.475,0.971-2.291,1.333
			c2.787-1.176,5.574-2.352,8.361-3.528c-1.053,0.438-2.137,0.721-3.264,0.887c3.101-0.417,6.203-0.833,9.304-1.25
			c-1.637,0.208-3.268,0.162-4.904-0.037c3.102,0.417,6.203,0.833,9.305,1.25c-3.411-0.466-6.681-1.554-9.851-2.87
			c2.787,1.176,5.574,2.352,8.361,3.528c-4.545-1.933-8.858-4.342-13.051-6.941c-11.846-7.343-23.597-14.842-35.407-22.243
			c-24.421-15.303-48.88-30.545-73.362-45.75c-44.366-27.554-88.814-54.975-133.319-82.304
			c-31.478-19.33-62.973-38.631-94.53-57.831c5.362,13.175,10.723,26.351,16.085,39.526c13.829-33.323,27.657-66.646,41.486-99.968
			c24.361-58.702,48.722-117.404,73.083-176.106c9.817-23.655,19.633-47.31,29.45-70.965c-14.352,8.148-28.703,16.297-43.055,24.446
			c31.795,5.611,63.589,11.222,95.384,16.833c63.064,11.129,126.128,22.258,189.192,33.388
			c45.854,8.092,91.708,16.184,137.561,24.276c6.607,1.166,13.179,2.38,19.75,3.751c26.32,5.492,53.526,11.111,78.413,21.515
			c-2.787-1.176-5.574-2.352-8.361-3.528c3.903,1.663,7.82,3.466,11.243,6.003c-2.361-1.824-4.722-3.649-7.083-5.473
			c0.916,0.711,1.767,1.466,2.505,2.364c-1.824-2.361-3.648-4.723-5.473-7.084c0.346,0.461,0.639,0.927,0.877,1.453
			c-1.176-2.787-2.352-5.574-3.528-8.361c0.107,0.287,0.189,0.562,0.252,0.86c-0.417-3.101-0.833-6.203-1.25-9.304
			c0.393,3.06-0.524,6.59-0.928,9.605c0.417-3.101,0.833-6.203,1.25-9.304c-7.25,53.816-16.939,107.37-25.906,160.917
			c-8.38,50.042-16.862,100.067-25.421,150.079c-0.262,1.531-0.524,3.063-0.787,4.594c-1.652,9.636-1.582,18.246,3.528,26.969
			c4.583,7.824,12.169,13.678,20.917,16.085c9.034,2.485,18.886,1.207,26.969-3.528c7.184-4.208,14.624-12.394,16.085-20.917
			c6.902-40.257,13.732-80.528,20.519-120.805c10.018-59.46,20.224-118.912,29.243-178.534c1.528-10.103,3.024-20.223,4.214-30.37
			c2.072-17.672-8.512-32.143-22.847-41.182c-7.444-4.695-16.076-7.711-24.293-10.724c-7.444-2.729-15.059-4.993-22.69-7.13
			c-14.828-4.153-29.843-7.646-44.898-10.866c-26.677-5.704-53.7-9.879-80.557-14.619c-60.934-10.753-121.868-21.507-182.802-32.26
			c-52.692-9.299-105.385-18.598-158.077-27.897c-8.131-1.435-16.262-2.87-24.392-4.305c-9.61-1.696-18.277-1.563-26.97,3.528
			c-8.616,5.047-12.41,12.061-16.085,20.917c-13.829,33.323-27.657,66.646-41.486,99.968
			c-24.361,58.702-48.722,117.404-73.083,176.106c-9.817,23.655-19.633,47.31-29.45,70.965c-1.667,6.203-1.667,12.406,0,18.608
			c2.44,8.871,8.277,16.167,16.085,20.917c53.924,32.808,107.704,65.855,161.417,99.008c48.155,29.723,96.234,59.57,144.182,89.627
			c17.496,10.968,34.171,22.563,53.35,30.339c10.436,4.231,24.752,5.901,35.458,1.747c3.085-1.197,7.791-2.661,10.901-4.966
			c8.264-6.123,8.385-6.485,14.641-14.62c3.283-4.27,5.189-9.745,6.574-14.905c2.624-9.777,2.877-20.305,1.713-30.317
			c-2.981-25.633-10.018-50.082-18.522-74.385c-19.085-54.541-43.167-107.475-68.101-159.559
			c-8.162-17.049-16.444-34.055-25.094-50.863c0,11.777,0,23.553,0,35.33c23.033-40.783,46.066-81.567,69.099-122.351
			c0.287-0.507,0.573-1.014,0.859-1.521c-13.175,5.362-26.351,10.723-39.525,16.085c49.1,8.539,98.2,17.077,147.3,25.616
			c10.053,1.748,20.106,3.497,30.16,5.245c9.624,1.673,18.262,1.573,26.97-3.528c7.824-4.583,13.678-12.168,16.085-20.917
			c2.484-9.034,1.207-18.886-3.528-26.969C-1039.168-30.058-1047.339-37.46-1055.868-38.944L-1055.868-38.944z"/>
	</g>
</g>
<path fill="#FFFFFF" d="M558.838,2646.543c-59.818,0.003-109.189-14.323-138.488-31.396c-43.876-25.565-75.283-65.643-90.828-115.9
	c-13.395-43.306-14.744-92.949-3.904-143.564c5.287-24.685,13.35-48.84,23.752-71.556c-10.811-6.885-20.999-14.283-30.368-22.141
	c-23.853-20.001-42.114-42.42-54.276-66.634c-13.998-27.868-19.705-57.539-16.962-88.188
	c8.597-96.057,62.004-171.955,154.448-219.492c66.829-34.363,130.998-41.576,133.696-41.865c0,0,39.767,1.101,37.618,32.474
	c-3.334,48.667-29.294,44.075-29.294,44.075c-0.538,0.061-54.46,6.384-108.702,34.776c-67.55,35.358-104.92,88.146-111.073,156.896
	c-2.875,32.123,11.936,62.053,44.021,88.957c6.51,5.458,13.51,10.585,20.89,15.375c2.091-2.637,4.216-5.223,6.38-7.763
	c38.447-45.116,85.205-71.766,135.218-77.069c95.349-10.11,138.494,35.251,147.071,81.073c9.843,52.583-23.66,108.329-73.16,121.733
	c-52.059,14.093-122.593,5.884-186.474-18.097c-7.593,16.982-13.525,35.051-17.491,53.569
	c-6.383,29.803-21.049,130.631,58.205,176.811c18.814,10.963,73.902,28.64,147.725,17.086
	c59.047-9.242,147.087-40.693,231.19-138.036c52.894-61.221,91.634-131.876,112.034-204.33
	c8.328-29.576,13.245-58.703,14.686-85.724c-64.6,22.422-132.306,33.274-183.174,28.733c-45.798-4.09-82.707-30.641-98.732-71.023
	c-16.531-41.659-7.563-89.201,23.406-124.072c21.738-24.478,52.984-41.156,90.359-48.232c39.602-7.498,85.731-4.387,137.109,9.247
	c42.118,11.177,74.675,43.503,92.645,91.601c28.394-18.496,41.193-34.912,42.608-43.873l76.057,12.012
	c-7.819,49.52-57.574,87.286-103.216,112.029c2.116,43.137-3.795,91.037-17.63,140.172
	c-23.439,83.248-67.662,164.096-127.887,233.801C784.302,2607.633,657.402,2646.539,558.838,2646.543z M462.199,2251.863
	c45.919,14.362,92.701,18.23,122.551,10.147c9.899-2.681,20.213-19.282,17.6-33.241c-3.435-18.348-34.934-21.675-63.267-18.671
	C506.307,2213.574,480.139,2233.183,462.199,2251.863z M841.1,1996.181c-34.72,0-61.895,8.882-77.276,26.202
	c-11.546,13.001-15.151,30.068-9.409,44.539c5.226,13.166,17.303,21.239,34.01,22.73c44.38,3.965,109.299-8.174,168.417-31.157
	c-0.013-0.042-0.025-0.081-0.038-0.124c-6.184-20.031-18.635-45.26-42.832-51.68C887.429,1999.648,862.79,1996.181,841.1,1996.181z"
	/>
<g>
	<g>
		<path d="M346.023,88.085c-34.854,3.769-69.352,13.329-101.698,26.662c-65.282,26.909-125.246,70.507-156.795,135.452
			c-19.425,39.985-29.991,86.009-23.736,130.34c5.341,37.856,27.474,72.198,54.752,98.177
			c30.189,28.75,66.951,48.794,105.468,63.989c36.095,14.239,74.657,22.636,113.36,25.213c18.26,1.217,36.137,0.103,54.237-2.4
			c15.746-2.177,31.318-6.908,44.937-15.273c28.435-17.465,47.637-49.108,47.275-82.818c-0.173-16.088-4.952-32.966-14.151-46.246
			c-12.102-17.47-28.265-28.69-47.672-36.758c-19.385-8.06-41.452-10.221-62.276-9.833c-20.073,0.374-40.535,3.125-59.488,9.933
			c-73.668,26.461-122.893,94.474-148.634,165.795c-25.533,70.748-27.81,155.594,10.204,222.398
			c17.465,30.691,44.924,57.83,76.814,73.321c26.86,13.049,55.304,19.413,84.743,23.283c80.654,10.605,164.168-9.896,234.851-48.769
			c48.529-26.69,91.902-63.177,128.883-104.231c39.72-44.097,74.189-93.684,99.768-147.3c22.383-46.921,37.648-95.801,44.378-147.34
			c5.072-38.847,3.697-79.792-7.529-117.506c-10.283-34.546-29.387-65.155-58.893-86.245c-16.482-11.781-37.028-17.76-56.504-22.297
			c-26.174-6.098-53.848-8.832-80.592-5.358c-24.402,3.169-48.309,9.59-69.144,23.219c-9.071,5.934-17.782,12.955-24.876,21.194
			c-8.736,10.148-14.611,20.294-19.705,32.555c-7.391,17.789-8.539,38.695-4.458,57.442c2.878,13.223,10.108,24.256,18.369,34.635
			c15.786,19.832,40.512,31.84,63.671,40.593c27.004,10.206,56.306,14.718,84.992,16.592c31.859,2.082,64.113-0.62,95.382-6.928
			c31.087-6.272,61.863-17.531,89.094-33.864c26.579-15.942,49.269-37.139,66.65-62.788C946.597,285.037,955.863,252.233,959,219
			c1.539-16.309-14.812-30-30-30c-7.925,0-15.612,3.186-21.213,8.787c-6.028,6.028-8.011,12.984-8.787,21.213
			c-0.257,2.719-0.563,5.431-0.919,8.138c0.357-2.659,0.714-5.317,1.071-7.975c-2.082,15.167-5.966,30-11.906,44.12
			c1.008-2.389,2.016-4.777,3.024-7.166c-4.539,10.617-10.178,20.69-16.865,30.104c-0.838,1.18-1.702,2.342-2.573,3.5
			c-1.725,2.265-0.689,0.928,3.105-4.01c-0.531,0.683-1.074,1.358-1.616,2.032c-1.804,2.243-3.686,4.423-5.604,6.568
			c-3.83,4.278-7.914,8.326-12.156,12.194c-1.91,1.742-3.87,3.427-5.854,5.084c-1.104,0.922-2.225,1.823-3.349,2.718
			c-4.735,3.77,6.806-5.168,1.966-1.529c-4.622,3.475-9.423,6.707-14.33,9.763c-9.938,6.189-20.429,11.47-31.201,16.042
			c2.389-1.008,4.777-2.016,7.166-3.024c-23.708,9.959-48.788,16.297-74.245,19.738c2.658-0.357,5.316-0.714,7.975-1.071
			c-29.161,3.86-58.827,3.991-87.995,0.126c2.658,0.357,5.316,0.714,7.975,1.072c-21.096-2.854-42.039-7.766-61.722-15.983
			c2.389,1.008,4.777,2.016,7.167,3.024c-5.973-2.521-11.805-5.349-17.428-8.577c-2.537-1.456-5.014-3.015-7.439-4.648
			c-1.172-0.789-2.322-1.609-3.462-2.443c-2.117-1.549-5.679-4.402,3.708,2.897c-0.615-0.479-1.221-0.97-1.823-1.463
			c-4.145-3.388-7.966-7.174-11.333-11.336c-2.289-2.829,5.592,7.305,3.401,4.41c-0.419-0.553-0.821-1.118-1.221-1.684
			c-0.786-1.116-1.521-2.268-2.227-3.436c-1.294-2.139-2.411-4.381-3.386-6.681c1.008,2.389,2.016,4.777,3.023,7.166
			c-1.563-3.793-2.652-7.731-3.221-11.795c0.356,2.658,0.714,5.316,1.071,7.975c-0.835-6.471-0.694-13.061,0.157-19.52
			c-0.356,2.659-0.714,5.317-1.071,7.975c0.911-6.245,2.569-12.282,4.99-18.11c-1.008,2.389-2.016,4.777-3.024,7.167
			c1.964-4.548,4.339-8.854,7.117-12.955c0.376-0.548,0.759-1.09,1.149-1.628c1.719-2.322,0.759-1.096-2.88,3.676
			c0.824-1.062,1.696-2.086,2.573-3.105c1.78-2.069,3.702-4.012,5.676-5.895c2.156-2.057,10.633-8.738,1.132-1.411
			c2.282-1.76,4.672-3.375,7.1-4.926c5.089-3.251,10.507-5.965,16.054-8.34c-2.39,1.008-4.778,2.016-7.167,3.024
			c11.571-4.823,23.708-7.882,36.113-9.596c-2.658,0.357-5.316,0.714-7.975,1.071c16.765-2.177,33.67-1.862,50.423,0.274
			c-2.658-0.357-5.316-0.714-7.975-1.072c18.422,2.48,37.346,6.64,54.552,13.815c-2.389-1.008-4.778-2.016-7.167-3.024
			c5.987,2.559,11.651,5.729,16.979,9.47c0.642,0.45,1.271,0.916,1.9,1.382c3.364,2.491-6.868-5.373-3.585-2.768
			c1.238,0.983,2.44,2.011,3.629,3.053c2.611,2.29,5.073,4.748,7.437,7.291c2.328,2.506,10.035,12.44,2.149,2.116
			c2.223,2.911,4.276,5.948,6.228,9.046c4.104,6.518,7.555,13.433,10.549,20.523c-1.009-2.389-2.017-4.777-3.024-7.167
			c6.607,15.906,10.686,32.698,12.996,49.741c-0.357-2.658-0.715-5.317-1.072-7.975c3.446,26.302,2.688,52.963-0.834,79.214
			c0.357-2.659,0.715-5.317,1.071-7.975c-5.149,37.386-15.916,73.779-30.482,108.547c1.009-2.389,2.017-4.777,3.024-7.166
			c-10.382,24.57-22.658,48.271-36.496,71.069c-7.438,12.255-15.384,24.197-23.686,35.883c-4.128,5.811-8.381,11.532-12.706,17.198
			c-3.965,5.195,4.299-5.52,0.26-0.35c-1.121,1.435-2.255,2.86-3.389,4.286c-2.67,3.358-5.388,6.679-8.123,9.984
			c-18.744,22.641-39.135,43.893-61.25,63.261c-4.885,4.278-9.876,8.434-14.93,12.51c-1.874,1.512-10.935,8.51-2.656,2.153
			c-2.882,2.214-5.802,4.377-8.736,6.521c-10.085,7.365-20.514,14.256-31.195,20.724c-16.25,9.839-33.216,18.482-50.69,25.926
			c2.389-1.008,4.777-2.016,7.166-3.023c-30.418,12.833-62.358,21.771-95.085,26.205c2.658-0.357,5.316-0.714,7.975-1.071
			c-29.345,3.881-59.139,4.188-88.503,0.327c2.659,0.357,5.317,0.715,7.976,1.072c-21.061-2.832-42.052-7.671-61.693-15.904
			c2.389,1.008,4.777,2.016,7.166,3.024c-5.837-2.473-11.486-5.286-16.933-8.53c-4.911-2.926-9.64-6.148-14.217-9.57
			c-3.739-2.795,7.029,5.546,1.935,1.469c-1.083-0.867-2.146-1.76-3.207-2.655c-2.361-1.994-4.643-4.082-6.882-6.213
			c-3.919-3.731-7.604-7.704-11.112-11.823c-0.869-1.021-1.715-2.061-2.557-3.104c-4.01-4.963,4.381,5.768,1.617,2.114
			c-1.607-2.125-3.14-4.305-4.638-6.508c-6.164-9.065-11.296-18.808-15.569-28.895c1.008,2.389,2.016,4.777,3.024,7.166
			c-6.768-16.232-11.134-33.309-13.502-50.722c0.357,2.658,0.714,5.317,1.071,7.976c-2.971-22.625-2.583-45.539,0.428-68.139
			c-0.357,2.658-0.715,5.317-1.072,7.976c3.664-26.739,10.954-52.882,21.428-77.748c-1.008,2.389-2.016,4.778-3.024,7.167
			c5.855-13.764,12.67-27.086,20.485-39.842c3.831-6.251,7.939-12.331,12.26-18.253c1.018-1.396,2.059-2.775,3.104-4.15
			c-7.086,9.317-1.944,2.525-0.229,0.399c2.354-2.918,4.791-5.768,7.277-8.574c4.671-5.274,9.611-10.308,14.755-15.121
			c2.411-2.255,4.89-4.438,7.406-6.576c1.248-1.061,2.517-2.097,3.791-3.127c0.761-0.615,1.532-1.219,2.302-1.823
			c-8.435,6.611-4.869,3.75-2.971,2.323c10.947-8.227,22.855-15.169,35.462-20.52c-2.389,1.008-4.777,2.016-7.166,3.024
			c11.568-4.826,23.64-8.211,36.062-9.925c-2.658,0.357-5.317,0.714-7.975,1.071c16.127-2.11,32.642-2.442,48.781-0.294
			c-2.658-0.357-5.316-0.714-7.975-1.072c9.595,1.358,19.005,3.655,27.966,7.38c-2.389-1.008-4.778-2.016-7.167-3.024
			c4.077,1.745,8.003,3.761,11.764,6.113c2.61,1.632,9.788,7.294-0.053-0.421c1.644,1.289,3.202,2.684,4.711,4.127
			c1.275,1.219,2.474,2.515,3.637,3.841c1.713,1.953,4.747,6.014-2.366-3.21c0.591,0.766,1.147,1.559,1.698,2.354
			c2.145,3.096,3.912,6.44,5.383,9.903c-1.008-2.389-2.017-4.778-3.024-7.167c1.826,4.455,3.071,9.073,3.749,13.839
			c-0.357-2.658-0.714-5.316-1.072-7.975c0.675,5.194,0.658,10.404-0.003,15.599c0.357-2.658,0.714-5.317,1.071-7.975
			c-0.794,5.723-2.348,11.264-4.592,16.586c1.008-2.389,2.016-4.777,3.024-7.166c-1.599,3.682-3.499,7.197-5.693,10.559
			c-0.522,0.8-1.073,1.581-1.629,2.358c-3.204,4.487,5.537-6.932,2.047-2.642c-1.383,1.701-2.873,3.312-4.409,4.874
			c-1.563,1.588-3.224,3.076-4.928,4.508c-4.19,3.522,6.441-4.87,3.115-2.362c-1.013,0.764-2.058,1.484-3.109,2.193
			c-3.901,2.63-8.093,4.81-12.419,6.649c2.389-1.009,4.777-2.017,7.167-3.024c-8.975,3.702-18.568,5.642-28.153,6.967
			c2.659-0.357,5.317-0.714,7.975-1.071c-21.904,2.916-44.181,2.023-66.04-0.844c2.658,0.357,5.317,0.715,7.975,1.072
			c-32.01-4.303-63.408-13.009-93.173-25.524c2.389,1.008,4.777,2.016,7.167,3.024c-13.186-5.594-26.023-11.954-38.389-19.186
			c-6.062-3.545-11.977-7.339-17.755-11.327c-2.7-1.863-5.353-3.794-7.979-5.759c-5.462-4.087,6.261,4.934,0.925,0.713
			c-1.408-1.114-2.795-2.253-4.177-3.399c-10.221-8.476-19.646-17.919-27.959-28.276c-4.034-5.026,4.343,5.714,1.571,2.036
			c-1.018-1.351-2.002-2.726-2.977-4.107c-1.935-2.743-3.753-5.565-5.502-8.429c-3.46-5.666-6.473-11.597-9.085-17.698
			c1.008,2.389,2.016,4.777,3.024,7.166c-4.25-10.135-7.21-20.699-8.746-31.584c0.357,2.658,0.714,5.317,1.072,7.975
			c-1.75-13.2-1.074-26.263,0.67-39.426c-0.357,2.659-0.714,5.317-1.072,7.976c2.733-19.865,7.81-39.301,15.539-57.816
			c-1.008,2.389-2.017,4.778-3.024,7.167c6.899-16.289,15.754-31.624,26.383-45.763c2.825-3.758-5.095,6.543-2.205,2.844
			c0.625-0.799,1.26-1.59,1.896-2.38c1.264-1.573,2.561-3.12,3.868-4.658c2.802-3.299,5.722-6.497,8.707-9.63
			c5.634-5.914,11.613-11.494,17.815-16.807c2.924-2.505,5.919-4.927,8.952-7.299c-9.333,7.299-2.973,2.301-0.756,0.654
			c1.773-1.317,3.569-2.603,5.374-3.877c6.328-4.468,12.861-8.641,19.522-12.593c12.599-7.475,25.753-13.999,39.217-19.763
			c0.512-0.218,1.024-0.436,1.538-0.652c-2.389,1.008-4.778,2.016-7.167,3.024c29.77-12.506,61.5-21.915,93.564-26.242
			c-2.658,0.357-5.317,0.714-7.975,1.071c0.818-0.109,1.636-0.218,2.457-0.307c8.264-0.894,15.125-2.698,21.213-8.787
			c5.601-5.601,8.787-13.289,8.787-21.213C376.023,103.065,362.315,86.324,346.023,88.085L346.023,88.085z"/>
	</g>
</g>
<path fill="none" stroke="#000000" stroke-width="77" stroke-miterlimit="10" d="M1325.023-981.915
	c0,0-235.912,25.365-253.914,226.511c-12.516,139.845,208.048,215.832,308.703,188.576c60.188-16.298,81.688-142.361-59.789-127.359
	c-159.732,16.938-256.361,316.217-95.291,410.069C1285-249,1483.485-217.931,1652.163-413.162
	c171.693-198.722,170.833-453.068,56.682-483.359C1468.739-960.233,1451.024-748.623,1570-738c112,10,310-66.009,322-142"/>
<path fill="none" stroke="#000000" stroke-width="65" stroke-miterlimit="10" d="M2006.593-917.892
	c0,0-319.481,25.342-337.483,226.488c-12.516,139.845,217.305,238.782,308.703,188.576c64.779-35.584,81.688-142.361-59.789-127.359
	c-159.732,16.938-250.396,275.294-105.127,403.531c61.611,54.388,268.589,72.725,437.267-122.507
	c171.693-198.722,170.833-453.068,56.682-483.359C2066.739-896.233,2049.024-684.623,2168-674c112,10,310-66.009,322-142"/>
<path fill="none" stroke="#000000" stroke-width="41" stroke-miterlimit="10" d="M-511.117-920.241
	c0,0-313.247-49.948-276.858,85.657c36.387,135.606,191.268,147.832,252.404,147.832s29.958-189.491-115.445-121.237
	c-145.405,68.254-251.375,254.404-59.813,283.601c191.561,29.199,403.502,74.031,423.88-170.515
	c20.379-244.545-73.364-395.348-138.576-317.91c-65.212,77.44-114.122,197.503,69.288,178.229
	c183.41-19.273,224.167-43.728,264.926-121.168"/>
<polyline fill="none" stroke="#000000" stroke-width="65" stroke-miterlimit="10" points="-1735,606.5 -1979,606.5 -1946.977,797.5 
	-1759,797.5 -1946.977,889.492 -1915,1014.838 -1639,1034 -1559,462 -2127.313,490 "/>
<polyline fill="none" stroke="#000000" stroke-width="65" stroke-miterlimit="10" points="822,-322 1017.5,-917.5 426,-917.5 
	333.438,-501.162 697.5,-378 720,-546 528.408,-596 550.941,-648.743 725.947,-598.973 765.274,-755.175 560.023,-782 "/>
<text transform="matrix(1 0 0 1 2378.707 1846.0732)" font-family="'Cinerama-Regular'" font-size="857.2573">E</text>
<text transform="matrix(1 0 0 1 2042.0293 1719.6709)" font-family="'Cinerama-Regular'" font-size="857.2573">T</text>
<polygon fill="#FFFFFF" points="1672.9,729.345 1701.983,788.273 1767.015,797.723 1719.958,843.592 1731.066,908.361 
	1672.9,877.781 1614.734,908.361 1625.844,843.592 1578.786,797.723 1643.818,788.273 "/>
<path fill="#FFFFFF" d="M1635.269,393.844c0,69.893-56.662,126.552-126.552,126.552c-69.896,0-126.554-56.659-126.554-126.552
	c0-69.895,56.657-126.554,126.554-126.554C1578.606,267.29,1635.269,323.949,1635.269,393.844z"/>
<circle cx="2446.237" cy="259.364" r="87.074"/>
<polygon fill="#C1272D" points="1693,764.09 1607.607,796.073 1577.609,236.602 1693,187.104 "/>
<polygon fill="#C1272D" points="1447.105,1435.09 1400.607,1407.073 1486,1375.09 1844.893,1376.07 "/>
<rect x="2207.303" y="789.168" transform="matrix(0.7071 -0.7071 0.7071 0.7071 97.7595 1975.3484)" fill="#C1272D" width="452.056" height="161.001"/>
</svg>
